<svg width="180" height="60" viewBox="0 0 180 60" fill="none" xmlns="http://www.w3.org/2000/svg">
<path fill-rule="evenodd" clip-rule="evenodd" d="M29.7394 0C46.1642 0 59.479 13.4314 59.479 30.0001C59.479 46.5686 46.1642 60 29.7394 60C13.3148 60 0 46.5686 0 30.0001C0 13.4314 13.3148 0 29.7394 0V0Z" fill="#314968"/>
<path fill-rule="evenodd" clip-rule="evenodd" d="M31.8625 14.186C31.6671 15.3922 31.579 16.5808 31.5983 17.7514C31.6073 18.6417 31.6185 19.5111 31.6309 20.3602H34.8762L36.3293 18.894V13.9724L38.86 11.4151L39.6395 12.2019L37.4283 14.4365V17.7852L40.0828 15.1075L40.8627 15.8943L35.3321 21.4733H31.6484C31.6694 22.6963 31.6935 23.8753 31.7214 25.0092H38.0978L43.8543 19.2024H46.6371V20.3154H44.3108L39.6579 25.0092H46.9166V26.1223H44.7036L46.9429 28.3842L46.1634 29.171L43.1449 26.1223H31.7502C31.7844 27.3784 31.8234 28.5772 31.8675 29.7183H40.4724L44.1101 33.393L43.3301 34.175L40.0156 30.8314H35.4023L41.11 36.5892H50.2124V37.7023H47.797L50.3319 40.2595L49.5519 41.0459L46.2374 37.7023H42.2137L46.9131 42.4431L48.2403 43.7818L47.4604 44.5686L36.6878 33.7013V38.3547L39.6791 41.3724L38.8991 42.1589L35.5846 38.8153V32.5883L33.843 30.8314H31.9126C31.9501 31.7154 31.9909 32.5632 32.0346 33.3741C32.1306 35.0472 32.2324 36.3845 32.3408 37.3862C32.5973 39.458 33.2813 40.9225 34.3926 41.7792C37.1504 43.6406 40.4963 45.0744 44.4308 46.0808C46.1351 46.5685 47.8608 47.0023 49.6077 47.3825C50.3 47.5806 50.7477 47.3411 50.9509 46.6633C51.4222 44.6793 51.7666 42.8078 51.9834 41.0487C52.5339 36.8137 52.579 32.8442 52.1189 29.1401C51.3963 23.2907 48.9032 17.7879 44.6392 12.6318C43.116 10.8426 41.6344 9.56236 40.1942 8.79109C39.31 8.28688 38.3367 7.99483 37.2748 7.91442C36.4092 7.87992 35.6381 8.05487 34.9601 8.43982C34.1703 8.89242 33.5185 9.60134 33.0049 10.5667C32.4454 11.666 32.0646 12.8722 31.8629 14.1863L31.8625 14.186Z" fill="white"/>
<path fill-rule="evenodd" clip-rule="evenodd" d="M27.6165 14.186C27.8119 15.3922 27.9 16.5808 27.8807 17.7514C27.8717 18.6417 27.8605 19.5111 27.8481 20.3602H24.6028L23.1498 18.894V13.9724L20.6191 11.4151L19.8394 12.2019L22.0507 14.4365V17.7852L19.3963 15.1075L18.6164 15.8943L24.1468 21.4733H27.8306C27.8096 22.6963 27.7854 23.8753 27.7577 25.0092H21.3812L15.6247 19.2024H12.842V20.3154H15.1682L19.8211 25.0092H12.5624V26.1223H14.7755L12.5362 28.3842L13.3157 29.171L16.3341 26.1223H27.7288C27.6946 27.3784 27.6556 28.5772 27.6116 29.7183H19.0066L15.3689 33.393L16.1488 34.175L19.4633 30.8314H24.0767L18.369 36.5892H9.2666V37.7023H11.682L9.14716 40.2595L9.92708 41.0459L13.2416 37.7023H17.2654L12.5658 42.4431L11.2386 43.7818L12.0187 44.5686L22.7911 33.7013V38.3547L19.8 41.3724L20.5799 42.1589L23.8944 38.8153V32.5883L25.636 30.8314H27.5663C27.5289 31.7154 27.4881 32.5632 27.4445 33.3741C27.3484 35.0472 27.2466 36.3845 27.1382 37.3862C26.8817 39.458 26.1977 40.9225 25.0864 41.7792C22.3286 43.6406 18.9827 45.0744 15.0483 46.0808C13.3439 46.5685 11.6182 47.0023 9.8712 47.3825C9.17894 47.5806 8.73135 47.3411 8.52816 46.6633C8.05686 44.6793 7.71242 42.8078 7.49562 41.0487C6.94515 36.8137 6.90005 32.8442 7.36016 29.1401C8.08272 23.2907 10.5758 17.7879 14.8398 12.6318C16.363 10.8426 17.8446 9.56236 19.2848 8.79109C20.1691 8.28688 21.1423 7.99483 22.2041 7.91442C23.0698 7.87992 23.841 8.05487 24.5189 8.43982C25.3087 8.89242 25.9606 9.60134 26.4741 10.5667C27.0336 11.666 27.4144 12.8722 27.6161 14.1863L27.6165 14.186Z" fill="white"/>
<path d="M76.6212 45.5018H76.0271C75.8361 45.5018 75.6515 45.4883 75.4672 45.4607C74.2384 45.3504 73.0093 45.082 71.7805 44.6546C70.5582 44.1934 69.3157 43.5871 68.0594 42.8365C67.9569 42.7539 67.8885 42.6506 67.8613 42.5125V42.3887C67.8613 42.3131 67.8885 42.2303 67.9435 42.1477C68.1005 41.8514 68.3667 41.4245 68.7421 40.8597C68.824 40.7494 68.9265 40.6668 69.0633 40.6118C69.1997 40.5913 69.3159 40.6118 69.4249 40.6944C72.0399 42.2856 74.3068 43.0499 76.2254 42.9948C78.1441 42.9188 79.7212 42.6504 80.9433 42.189C81.6672 41.9203 82.343 41.2315 82.9847 40.1295C83.6539 39.0274 83.5995 37.3746 82.8277 35.1636C82.6365 34.5988 82.1314 34.0202 81.3051 33.4279C80.5064 32.8632 79.5982 32.3123 78.5877 31.7751C78.021 31.4789 77.4749 31.1965 76.9423 30.9211C76.3826 30.6526 75.8364 30.3978 75.3038 30.1565C74.4776 29.7502 73.6788 29.3643 72.9074 28.9859C72.1287 28.6071 71.4869 28.2349 70.9817 27.8562C70.1557 27.2914 69.541 26.589 69.1451 25.7555C68.715 24.8947 68.517 23.9098 68.5442 22.8076C68.5442 22.0844 68.6126 21.4646 68.7422 20.9479C68.8789 20.4107 68.9538 20.1008 68.9813 20.0249C69.0087 19.9425 69.0769 19.777 69.1862 19.5362C69.2887 19.2951 69.4796 18.9988 69.746 18.6476C70.1692 18.0552 70.8656 17.4079 71.8215 16.7123C72.8118 16.0372 74.1703 15.6379 75.9044 15.5C76.3279 15.4726 76.7441 15.459 77.1473 15.459C78.7448 15.459 80.1443 15.7414 81.3462 16.306C82.8415 17.0084 83.8656 17.5595 84.4255 17.9589C84.5348 18.0417 84.5825 18.1656 84.5825 18.3241C84.6097 18.4617 84.5687 18.5787 84.4665 18.689C84.3572 18.8199 84.2001 19.013 83.9885 19.2538C83.8795 19.3917 83.7087 19.5912 83.4628 19.86C83.3876 19.97 83.2785 20.032 83.1488 20.0596C83.0397 20.0596 82.9304 20.0184 82.8278 19.9426C82.3704 19.6186 81.5579 19.1849 80.3837 18.6477C79.1819 18.0829 77.755 17.8694 76.1026 18.0004C74.9011 18.1105 73.9722 18.3791 73.3033 18.8131C72.6137 19.2401 72.1153 19.6602 71.8217 20.0597C71.6645 20.2526 71.5417 20.4248 71.4667 20.5833C71.4119 20.7484 71.3711 20.8448 71.3439 20.8657L71.303 20.9068C71.303 20.9622 71.2346 21.272 71.1049 21.8367C70.9411 22.429 70.9274 23.0763 71.0641 23.7719C71.146 24.1232 71.2756 24.4746 71.4668 24.8258C71.6784 25.1772 71.9722 25.4871 72.3409 25.7555C72.7982 26.0793 73.3854 26.4097 74.1023 26.7611C74.8261 27.1123 75.5703 27.4773 76.3417 27.8562C78.2946 28.7656 80.1312 29.7228 81.8653 30.7213C83.5722 31.7409 84.6646 32.9392 85.1426 34.3098C85.5181 35.3084 85.7297 36.3209 85.7843 37.3404C85.8118 37.5814 85.8252 37.8226 85.8252 38.0705C85.8252 38.7937 85.7435 39.4825 85.5863 40.1297C85.3472 41.2043 84.8898 42.1204 84.2275 42.871C83.5586 43.6286 82.7322 44.1935 81.7422 44.5653C80.8889 44.8615 80.0355 45.0957 79.1819 45.2541C78.3286 45.4195 77.475 45.5021 76.6216 45.5021L76.6212 45.5018ZM100.511 41.8239C100.614 41.9067 100.764 42.0237 100.948 42.189C101.16 42.3475 101.31 42.4714 101.392 42.554C101.495 42.6573 101.618 42.7674 101.747 42.8707C101.856 42.9533 101.911 43.0636 101.911 43.1946C101.911 43.3046 101.856 43.401 101.747 43.477C101.085 44.0142 100.375 44.4342 99.6307 44.7304C98.8524 45.0264 98.0672 45.2127 97.2684 45.2952C97.002 45.3227 96.7359 45.3365 96.4694 45.3365C95.2679 45.3365 94.0798 45.0677 92.9052 44.5305C91.4442 43.9107 90.2288 42.8638 89.266 41.3828C88.4401 40.1709 87.9759 38.8279 87.8664 37.3469C87.8391 37.1266 87.8254 36.9128 87.8254 36.6994C87.8254 35.4598 88.1053 34.2613 88.6651 33.1043C89.4435 31.4376 90.5497 30.177 91.9904 29.309C93.4036 28.4758 94.8922 28.0485 96.4693 28.0211H96.5103C97.3363 28.0211 98.1488 28.145 98.9479 28.3863C99.7738 28.6273 100.552 29.0061 101.269 29.5158C101.296 29.5432 101.31 29.5708 101.31 29.5984C101.31 29.6189 101.296 29.6467 101.269 29.6742C101.003 29.9427 100.736 30.1975 100.47 30.4456L99.6714 31.2513C99.6167 31.2791 99.5758 31.2791 99.5484 31.2513C97.9987 30.4181 96.3601 30.2801 94.6257 30.8451C92.8643 31.4097 91.601 32.6358 90.8297 34.5163C90.5085 35.329 90.3722 36.1896 90.4269 37.099C90.4814 37.9872 90.7206 38.8208 91.1507 39.606C92.1337 41.3552 93.5061 42.4022 95.2677 42.7536C97.0565 43.1049 98.6404 42.7947 100.027 41.8237C100.108 41.7686 100.191 41.7411 100.272 41.7411C100.348 41.7411 100.429 41.7686 100.511 41.8237V41.8239ZM105.905 25.5005H104.226V23.8061C104.226 23.3243 104.383 22.9175 104.704 22.5941C105.025 22.2703 105.427 22.112 105.905 22.112C106.356 22.112 106.759 22.2704 107.107 22.5941C107.428 22.9455 107.585 23.3518 107.585 23.8061C107.585 24.2609 107.428 24.6532 107.107 24.9772C106.786 25.3284 106.383 25.5005 105.905 25.5005H105.905ZM104.711 45.2952C104.601 45.2952 104.512 45.2677 104.431 45.2127C104.376 45.1298 104.348 45.0403 104.348 44.9303V28.2626C104.348 28.1523 104.39 28.0628 104.472 27.9802C104.554 27.8973 104.642 27.856 104.752 27.856H106.404C106.513 27.856 106.602 27.8973 106.684 27.9802C106.766 28.0628 106.807 28.1523 106.807 28.2626V44.9303C106.807 45.0403 106.766 45.1298 106.684 45.2127C106.629 45.2677 106.554 45.2952 106.444 45.2952H104.71H104.711ZM126.866 36.5756V36.7409C126.866 39.1103 126.034 41.1421 124.367 42.8364C122.661 44.5581 120.598 45.4191 118.195 45.4191H109.941C109.831 45.4191 109.742 45.3777 109.661 45.2952C109.579 45.2127 109.538 45.1229 109.538 45.0128V36.6995C109.538 36.6444 109.551 36.5756 109.579 36.4931V15.6238H110.808C111.149 15.6238 111.429 15.7478 111.64 15.989C111.852 16.23 111.968 16.5124 111.996 16.8361H112.037V29.7156C112.037 29.8809 112.105 29.9979 112.241 30.0807C112.405 30.1359 112.548 30.1083 112.685 29.9979C113.429 29.3781 114.262 28.896 115.17 28.545C116.106 28.1936 117.082 28.0212 118.1 28.0212C120.483 27.9938 122.531 28.8134 124.244 30.4801C125.965 32.1814 126.839 34.2131 126.866 36.5755L126.866 36.5756ZM124.409 36.8235V36.6997C124.409 35.0122 123.808 33.5589 122.599 32.3535C121.397 31.1209 119.923 30.5009 118.182 30.5009C116.577 30.5009 115.184 31.0521 114.003 32.1541C112.829 33.2216 112.173 34.5509 112.037 36.1349V36.2587C112.009 36.3347 111.996 36.4173 111.996 36.5001V42.5746C111.996 42.6849 112.037 42.7675 112.119 42.816C112.2 42.8984 112.289 42.9399 112.399 42.9399H118.1C119.813 42.9399 121.288 42.3475 122.524 41.1695C123.753 39.9851 124.381 38.5387 124.408 36.8235H124.409ZM143.84 30.9624C143.888 31.045 143.915 31.1345 143.915 31.2448V31.2858C143.915 31.3687 143.888 31.4308 143.84 31.4857L133.756 41.6516C134.821 42.4848 136.036 42.912 137.395 42.9396C138.726 42.967 139.941 42.5882 141.034 41.8101C141.116 41.755 141.198 41.7273 141.28 41.7273C141.355 41.7273 141.437 41.7686 141.519 41.8512L141.594 41.934C141.84 42.12 142.051 42.2919 142.236 42.4574C142.4 42.5882 142.598 42.7672 142.837 42.981C142.919 43.0362 142.959 43.1326 142.959 43.2634C142.959 43.401 142.905 43.5113 142.796 43.587C141.225 44.806 139.45 45.4191 137.477 45.4191H137.238C135.128 45.364 133.291 44.6269 131.714 43.2015C129.98 41.6653 129.024 39.7163 128.833 37.347V36.6169C128.833 34.5713 129.488 32.7461 130.793 31.1273C132.233 29.3505 134.063 28.3175 136.275 28.0212C136.705 27.9662 137.115 27.9388 137.518 27.9388C139.252 27.9388 140.864 28.4485 142.359 29.4676L142.598 29.6743C142.782 29.8328 142.973 30.0119 143.158 30.1977C143.342 30.3562 143.506 30.5216 143.636 30.6799L143.84 30.9623L143.84 30.9624ZM131.837 39.3237C131.912 39.4272 132.021 39.4958 132.158 39.5232H132.233C132.315 39.5232 132.397 39.4822 132.472 39.3994L140.153 31.6511C140.235 31.5752 140.276 31.4787 140.276 31.3687C140.303 31.3413 140.303 31.3136 140.276 31.2928C140.276 31.1552 140.208 31.0587 140.078 31.0034C139.252 30.6112 138.412 30.4183 137.558 30.4183C137.128 30.4183 136.691 30.4596 136.234 30.5422C134.903 30.8246 133.769 31.4926 132.834 32.5396C132.008 33.5108 131.516 34.6128 131.352 35.8525C131.325 36.1487 131.311 36.431 131.311 36.6995C131.291 37.6156 131.462 38.4836 131.837 39.3237H131.837ZM149.172 42.8707V44.9303C149.172 45.0403 149.132 45.1298 149.05 45.2127C148.968 45.2952 148.879 45.3365 148.77 45.3365H147.076C146.967 45.3365 146.878 45.2952 146.796 45.2127C146.715 45.1298 146.674 45.0403 146.674 44.9303V36.6585C146.674 34.4269 147.411 32.5052 148.893 30.8865C150.388 29.2472 152.197 28.3176 154.334 28.1041H154.41C154.491 28.1041 154.573 28.1315 154.655 28.1867C154.731 28.2692 154.771 28.3586 154.771 28.469V30.1633C154.771 30.2459 154.744 30.3218 154.69 30.4043C154.614 30.4871 154.519 30.5283 154.41 30.5283C152.921 30.742 151.665 31.4308 150.654 32.5878C149.637 33.7379 149.132 35.1017 149.132 36.6585V42.8709H149.173L149.172 42.8707ZM159.203 25.5004H157.523V23.806C157.523 23.3242 157.68 22.9174 158.001 22.5939C158.322 22.2701 158.724 22.1119 159.202 22.1119C159.653 22.1119 160.056 22.2703 160.404 22.5939C160.725 22.9454 160.882 23.3516 160.882 23.806C160.882 24.2608 160.725 24.6531 160.404 24.977C160.083 25.3283 159.68 25.5004 159.202 25.5004H159.203ZM158.008 45.2951C157.898 45.2951 157.81 45.2675 157.728 45.2125C157.673 45.1297 157.646 45.0401 157.646 44.9301V28.2624C157.646 28.1521 157.687 28.0626 157.769 27.98C157.851 27.8972 157.939 27.8559 158.049 27.8559H159.701C159.81 27.8559 159.899 27.8972 159.981 27.98C160.063 28.0626 160.104 28.1521 160.104 28.2624V44.9301C160.104 45.0401 160.063 45.1297 159.981 45.2125C159.926 45.2675 159.851 45.2951 159.742 45.2951H158.008H158.008ZM180 36.8992V45.0127C180 45.1506 179.959 45.2401 179.877 45.2951C179.795 45.3776 179.706 45.419 179.597 45.419H171.547C169.28 45.419 167.286 44.6132 165.58 42.9945C163.859 41.3827 162.958 39.4336 162.876 37.147V36.8231C162.876 35.3147 163.224 33.9304 163.921 32.6633C164.692 31.2925 165.723 30.2181 167.007 29.4397C167.696 29.0059 168.447 28.6822 169.246 28.4686C169.943 28.2827 170.666 28.1862 171.411 28.1862H171.772C174.019 28.2963 175.937 29.2057 177.542 30.9275C179.18 32.6492 180 34.6399 180 36.8989V36.8992ZM177.542 42.5813V36.9061C177.542 35.2394 176.982 33.8067 175.862 32.5945C174.715 31.3615 173.316 30.7208 171.656 30.6659H171.458C169.779 30.6659 168.338 31.2721 167.136 32.4772C165.935 33.6825 165.334 35.1359 165.334 36.8233V37.0231C165.389 38.6898 166.017 40.0948 167.212 41.2519C168.44 42.4022 169.881 42.9809 171.533 42.9809H177.18C177.262 42.9809 177.337 42.9396 177.419 42.8567C177.501 42.7811 177.542 42.6846 177.542 42.5813V42.5813Z" fill="#314968"/>
</svg>
